<svg t="1709858167929" class="icon" viewBox="0 0 1024 1024" version="1.1" xmlns="http://www.w3.org/2000/svg" p-id="3422" width="200" height="200"><path d="M512 1024c282.760533 0 512-229.239467 512-512 0-282.760533-229.239467-512-512-512C229.239467 0 0 229.239467 0 512c0 282.760533 229.239467 512 512 512zM182.101333 467.899733l540.7744-208.554666c24.6784-11.127467 48.5376 5.973333 39.1168 43.758933l-92.091733 433.9712c-6.417067 30.856533-25.019733 38.1952-50.858667 23.927467l-140.288-103.594667-67.447466 65.570133-0.750934 0.7168c-7.509333 7.2704-13.755733 13.312-27.306666 13.312l9.557333-143.121066h-0.068267 0.068267l260.266667-234.9056c11.400533-10.1376-2.4576-15.086933-17.646934-5.8368l-321.262933 202.6496-138.820267-43.3152c-29.934933-9.147733-30.139733-29.764267 6.7584-44.578134z" p-id="3423"></path></svg>