<svg t="1709858227442" class="icon" viewBox="0 0 1024 1024" version="1.1" xmlns="http://www.w3.org/2000/svg" p-id="7239" width="200" height="200"><path d="M594.016 68c-110.016-40-228-34.016-334.016 16s-186.016 138.016-226.016 248L-0.032 320c42.016-120 130.016-214.016 244-268s242.016-58.016 362.016-16c198.016 72 302.016 290.016 230.016 488a310.976 310.976 0 0 1-158.016 176 303.52 303.52 0 0 1-132 30.016 319.2 319.2 0 0 1-106.016-18.016c-64-22.016-114.016-70.016-142.016-130.016s-32-128-10.016-192c38.016-106.016 156-162.016 262.016-124l-12 34.016c-88-32-184 14.016-216 102.016-20 54.016-16 112 8 164s68 92 122.016 112c68 24 144 22.016 210.016-10.016s116-88 140-156c64-180-28-380-208-444z m396 464l34.016 12c-42.016 120-130.016 216-244 270.016-64 30.016-134.016 44-202.016 44-54.016 0-108-10.016-160-28-198.016-72-302.016-290.016-230.016-488 28-78.016 84-140 158.016-176s160-40 238.016-12c64 22.016 114.016 70.016 142.016 130.016s32 128 10.016 192c-38.016 106.016-156 162.016-262.016 124l12-34.016c88 32 184-14.016 216-102.016 20-54.016 16-112-8-164s-68-92-122.016-112c-68-24-144-22.016-210.016 10.016s-116 88-140 156c-64 180 28 378.016 208 442.016 110.016 40 230.016 34.016 336-16s184-138.016 224-248zM898.016 152V113.984h-38.016V77.984h38.016V39.968h36v38.016h38.016v36h-38.016V152h-36z m48 170.016H928v-24h-24V280H928V256h18.016v24h24v18.016h-24v24z m17.984 453.984V800h24v18.016h-24v26.016h-18.016v-26.016h-24V800h24v-24h18.016zM80 618.016h-18.016v-24h-24V576h24v-24H80V576h24v18.016H80v24z m24-572v-10.016h-10.016V17.984h10.016V5.984h18.016v12h12v18.016h-12v10.016H104z m652-6.016V29.984h-12V11.968h12v-12h18.016v12h10.016v18.016h-10.016v10.016h-18.016zM848 862.016v10.016h10.016v18.016H848v12h-18.016v-12h-12v-18.016h12v-10.016h18.016zM260 792v38.016h38.016v36H260v38.016H224v-38.016H185.984v-36H224V792h36z m-161.984-57.984v10.016h10.016v18.016h-10.016v12H80v-12h-12v-18.016H80v-10.016h18.016z m336-302.016c0-46.016 36-82.016 82.016-82.016s84 36 84 82.016-38.016 84-84 84-82.016-38.016-82.016-84z m129.984 0c0-26.016-22.016-46.016-48-46.016s-46.016 20-46.016 46.016 20 48 46.016 48 48-22.016 48-48z" p-id="7240"></path></svg>